<?xml version="1.0" encoding="utf-8"?>
<!-- Generator: Adobe Illustrator 22.1.0, SVG Export Plug-In . SVG Version: 6.00 Build 0)  -->
<svg version="1.1" id="Ebene_1" xmlns="http://www.w3.org/2000/svg" xmlns:xlink="http://www.w3.org/1999/xlink" x="0px" y="0px"
	 viewBox="0 0 68.3 86.2" style="enable-background:new 0 0 68.3 86.2;" xml:space="preserve">
<style type="text/css">
	.st0{fill:#F4D919;}
</style>
<g>
	<path class="st0" d="M14.1,28.7c0.9,0.3,1.8-0.2,2.1-1.1c2.7-8,10.1-13.3,18.5-13.3c10.7,0,19.5,8.7,19.5,19.5
		c0,8.3-3.7,13.3-6.7,17.2c-2.2,2.9-4.1,5.4-4.1,8.4c0,0.2,0,0.4,0,0.6h-7v-3.9c0-0.9-0.8-1.7-1.7-1.7S33,55.2,33,56.1V60h-7
		c0-0.2,0-0.4,0-0.6c0-3-1.9-5.5-4.1-8.4s-4.7-6.3-5.9-11c-0.2-0.9-1.2-1.4-2.1-1.2C13,39,12.5,40,12.7,40.9
		c1.4,5.4,4.2,9.1,6.5,12.2c1.9,2.5,3.4,4.5,3.4,6.4c0,0.8,0,1.6,0.1,2.3V76v0.1l0,0c0,0.1,0,0.1,0,0.2l0,0c0.6,2.7,2.1,5.2,4.2,7
		c2.2,1.8,4.9,2.8,7.7,2.8s5.6-1,7.7-2.8s3.6-4.3,4.2-7l0,0c0-0.1,0-0.1,0-0.2l0,0V76V61.8c0.1-0.8,0.1-1.5,0.1-2.3
		c0-1.9,1.5-3.9,3.4-6.4c3.1-4.2,7.4-9.8,7.4-19.3c0.2-12.7-10.1-22.9-22.7-22.9c-9.8,0-18.5,6.3-21.6,15.7
		C12.8,27.5,13.2,28.4,14.1,28.7z M34.7,82.8c-3.4,0-6.5-2.1-8-5.1h15.9C41.3,80.8,38.2,82.8,34.7,82.8z M43.4,74.3H26.1v-3.8h17.2
		L43.4,74.3L43.4,74.3z M43.4,67.2H26.1v-3.8h17.2L43.4,67.2L43.4,67.2z"/>
	<path class="st0" d="M42.5,37.1c0-0.9-0.8-1.7-1.7-1.7h-12c-0.9,0-1.7,0.8-1.7,1.7s0.8,1.7,1.7,1.7h4.3v3.9c0,0.9,0.8,1.7,1.7,1.7
		s1.7-0.8,1.7-1.7v-3.9h4.3C41.7,38.8,42.5,38.1,42.5,37.1z"/>
	<path class="st0" d="M34.7,47.7c-0.9,0-1.7,0.8-1.7,1.7s0.8,1.7,1.7,1.7s1.7-0.8,1.7-1.7S35.7,47.7,34.7,47.7z"/>
	<path class="st0" d="M15.3,33.7c0-0.9-0.8-1.7-1.7-1.7c-0.9,0-1.7,0.8-1.7,1.7s0.8,1.7,1.7,1.7C14.5,35.4,15.3,34.7,15.3,33.7z"/>
</g>
<path class="st0" d="M34,7.9c0.9,0,1.7-0.8,1.7-1.7V1.7C35.6,0.7,34.9,0,34,0s-1.7,0.8-1.7,1.7v4.5C32.3,7.1,33,7.9,34,7.9z"/>
<path class="st0" d="M1.7,35.6h4.5c0.9,0,1.7-0.8,1.7-1.7s-0.8-1.7-1.7-1.7H1.7C0.8,32.2,0,33,0,33.9S0.8,35.6,1.7,35.6z"/>
<path class="st0" d="M13.1,15.5c0.3,0.3,0.8,0.5,1.2,0.5s0.9-0.2,1.2-0.5c0.7-0.7,0.7-1.7,0-2.4l-3.2-3.2c-0.7-0.7-1.7-0.7-2.4,0
	c-0.7,0.7-0.7,1.7,0,2.4L13.1,15.5z"/>
<path class="st0" d="M10,59.6c0.4,0,0.9-0.2,1.2-0.5l3.2-3.2c0.7-0.7,0.7-1.7,0-2.4c-0.7-0.7-1.7-0.7-2.4,0l-3.2,3.2
	c-0.7,0.7-0.7,1.7,0,2.4C9.1,59.5,9.5,59.6,10,59.6z"/>
<path class="st0" d="M53.6,16c0.4,0,0.9-0.2,1.2-0.5l3.2-3.2c0.7-0.7,0.7-1.7,0-2.4c-0.7-0.7-1.7-0.7-2.4,0l-3.2,3.2
	c-0.7,0.7-0.7,1.7,0,2.4C52.7,15.9,53.1,16,53.6,16z"/>
<path class="st0" d="M53.5,53.5c-0.7,0.7-0.7,1.7,0,2.4l3.2,3.2c0.3,0.3,0.8,0.5,1.2,0.5c0.4,0,0.9-0.2,1.2-0.5
	c0.7-0.7,0.7-1.7,0-2.4l-3.2-3.2C55.3,52.9,54.2,52.9,53.5,53.5z"/>
<path class="st0" d="M61.7,35.6h4.5c0.9,0,1.7-0.8,1.7-1.7s-0.8-1.7-1.7-1.7h-4.5c-0.9,0-1.7,0.8-1.7,1.7S60.8,35.6,61.7,35.6z"/>
</svg>
