<?xml version="1.0" encoding="utf-8"?>
<!-- Generator: Adobe Illustrator 22.1.0, SVG Export Plug-In . SVG Version: 6.00 Build 0)  -->
<svg version="1.1" id="Ebene_1" xmlns="http://www.w3.org/2000/svg" xmlns:xlink="http://www.w3.org/1999/xlink" x="0px" y="0px"
	 viewBox="0 0 45.7 75.3" style="enable-background:new 0 0 45.7 75.3;" xml:space="preserve">
<style type="text/css">
	.st0{fill:#07132C;}
</style>
<g>
	<path class="st0" d="M2.2,17.8c0.9,0.3,1.8-0.2,2.1-1.1C7,8.7,14.4,3.4,22.8,3.4c10.7,0,19.5,8.7,19.5,19.5
		c0,8.3-3.7,13.3-6.7,17.2c-2.2,2.9-4.1,5.4-4.1,8.4c0,0.2,0,0.4,0,0.6h-7v-3.9c0-0.9-0.8-1.7-1.7-1.7c-0.9,0-1.7,0.8-1.7,1.7v3.9
		h-7c0-0.2,0-0.4,0-0.6c0-3-1.9-5.5-4.1-8.4s-4.7-6.3-5.9-11c-0.2-0.9-1.2-1.4-2.1-1.2c-0.9,0.2-1.4,1.2-1.2,2.1
		c1.4,5.4,4.2,9.1,6.5,12.2c1.9,2.5,3.4,4.5,3.4,6.4c0,0.8,0,1.6,0.1,2.3v14.2v0.1l0,0c0,0.1,0,0.1,0,0.2l0,0c0.6,2.7,2.1,5.2,4.2,7
		c2.2,1.8,4.9,2.8,7.7,2.8s5.6-1,7.7-2.8s3.6-4.3,4.2-7l0,0c0-0.1,0-0.1,0-0.2l0,0v-0.1V50.9c0.1-0.8,0.1-1.5,0.1-2.3
		c0-1.9,1.5-3.9,3.4-6.4c3.1-4.2,7.4-9.8,7.4-19.3C45.7,10.2,35.4,0,22.8,0C13,0,4.3,6.3,1.2,15.7C0.9,16.6,1.3,17.5,2.2,17.8z
		 M22.8,71.9c-3.4,0-6.5-2.1-8-5.1h15.9C29.4,69.9,26.3,71.9,22.8,71.9z M31.5,63.4H14.2v-3.8h17.2L31.5,63.4L31.5,63.4z M31.5,56.3
		H14.2v-3.8h17.2L31.5,56.3L31.5,56.3z"/>
	<path class="st0" d="M30.6,26.2c0-0.9-0.8-1.7-1.7-1.7h-12c-0.9,0-1.7,0.8-1.7,1.7c0,0.9,0.8,1.7,1.7,1.7h4.3v3.9
		c0,0.9,0.8,1.7,1.7,1.7c0.9,0,1.7-0.8,1.7-1.7v-3.9h4.3C29.8,27.9,30.6,27.2,30.6,26.2z"/>
	<path class="st0" d="M22.8,36.8c-0.9,0-1.7,0.8-1.7,1.7s0.8,1.7,1.7,1.7c0.9,0,1.7-0.8,1.7-1.7S23.8,36.8,22.8,36.8z"/>
	<path class="st0" d="M3.4,22.8c0-0.9-0.8-1.7-1.7-1.7S0,21.9,0,22.8c0,0.9,0.8,1.7,1.7,1.7S3.4,23.8,3.4,22.8z"/>
</g>
</svg>
