<?xml version="1.0" encoding="utf-8"?>
<!-- Generator: Adobe Illustrator 24.1.1, SVG Export Plug-In . SVG Version: 6.00 Build 0)  -->
<svg version="1.1" id="Capa_1" xmlns="http://www.w3.org/2000/svg" xmlns:xlink="http://www.w3.org/1999/xlink" x="0px" y="0px"
	 viewBox="0 0 135.5 210.3" style="enable-background:new 0 0 135.5 210.3;" xml:space="preserve">
<style type="text/css">
	.st0{fill:#07132C;}
</style>
<g>
	<path class="st0" d="M30.8,0c-3.4,0-6.2,2.8-6.2,6.2v31.6H6.2C2.8,37.8,0,40.5,0,44v24.6c0,3.4,2.8,6.2,6.2,6.2h6.2v30.8
		c0,28.6,21.8,52.2,49.6,55.1c2.9,27.8,26.5,49.6,55.1,49.6c3.4,0,6.2-2.8,6.2-6.2c0-3.4-2.8-6.2-6.2-6.2
		c-21.8,0-39.9-16.3-42.7-37.4c27.5-3.3,48.9-26.7,48.9-55.1V74.8h6.2c3.4,0,6.2-2.8,6.2-6.2V44c0-3.4-2.8-6.2-6.2-6.2h-18.5V6.2
		c0-3.4-2.8-6.2-6.2-6.2s-6.2,2.8-6.2,6.2v31.6H37V6.2C37,2.8,34.2,0,30.8,0z M123.2,62.4h-6.2c-3.4,0-6.2,2.8-6.2,6.2v37
		c0,23.8-19.3,43.1-43.1,43.1s-43.1-19.3-43.1-43.1v-37c0-3.4-2.8-6.2-6.2-6.2h-6.2V50.1h110.9V62.4z"/>
</g>
</svg>
